<svg width="24" height="23" viewBox="0 0 24 23" fill="none" xmlns="http://www.w3.org/2000/svg">
<mask id="mask0_17_249" style="mask-type:luminance" maskUnits="userSpaceOnUse" x="0" y="-1" width="25" height="25">
<path d="M12.4857 1.91663L9.61068 4.79163H5.77734V8.62496L2.90234 11.5L5.77734 14.375V18.2083H9.61068L12.4857 21.0833L15.3607 18.2083H19.194V14.375L22.069 11.5L19.194 8.62496V4.79163H15.3607L12.4857 1.91663Z" fill="white" stroke="white" stroke-width="4" stroke-linejoin="round"/>
<path d="M12.4857 14.375C13.2482 14.375 13.9794 14.0721 14.5186 13.5329C15.0578 12.9938 15.3607 12.2625 15.3607 11.5C15.3607 10.7375 15.0578 10.0062 14.5186 9.46707C13.9794 8.9279 13.2482 8.625 12.4857 8.625C11.7232 8.625 10.9919 8.9279 10.4527 9.46707C9.91356 10.0062 9.61066 10.7375 9.61066 11.5C9.61066 12.2625 9.91356 12.9938 10.4527 13.5329C10.9919 14.0721 11.7232 14.375 12.4857 14.375Z" fill="black" stroke="black" stroke-width="4" stroke-linejoin="round"/>
</mask>
<g mask="url(#mask0_17_249)">
<path d="M0.985657 0H23.9857V23H0.985657V0Z" fill="#221D57"/>
</g>
</svg>
