<svg xmlns="http://www.w3.org/2000/svg" xmlns:xlink="http://www.w3.org/1999/xlink" width="40" zoomAndPan="magnify" viewBox="0 0 30 30.000001" height="40" preserveAspectRatio="xMidYMid meet" version="1.0"><defs><clipPath id="15b7b276a4"><path d="M 1.007812 0.523438 L 28.585938 0.523438 L 28.585938 28.101562 L 1.007812 28.101562 Z M 1.007812 0.523438 " clip-rule="nonzero"/></clipPath></defs><g clip-path="url(#15b7b276a4)"><path fill="#000000" d="M 14.792969 0.519531 C 7.179688 0.519531 1.003906 6.695312 1.003906 14.3125 C 1.003906 21.925781 7.179688 28.101562 14.792969 28.101562 C 22.410156 28.101562 28.582031 21.925781 28.582031 14.3125 C 28.582031 6.695312 22.410156 0.519531 14.792969 0.519531 Z M 14.792969 4.382812 C 17.535156 4.382812 19.757812 6.605469 19.757812 9.347656 C 19.757812 12.089844 17.535156 14.3125 14.792969 14.3125 C 12.050781 14.3125 9.832031 12.089844 9.832031 9.347656 C 9.832031 6.605469 12.050781 4.382812 14.792969 4.382812 Z M 14.792969 24.792969 C 11.269531 24.792969 8.160156 23.046875 6.261719 20.378906 C 8.160156 17.710938 11.269531 15.964844 14.792969 15.964844 C 18.320312 15.964844 21.429688 17.710938 23.328125 20.378906 C 21.429688 23.046875 18.320312 24.792969 14.792969 24.792969 Z M 14.792969 24.792969 " fill-opacity="1" fill-rule="nonzero"/></g></svg>